<svg width="20" height="20" fill="none" xmlns="http://www.w3.org/2000/svg"><path d="M3.5 17h13c.275 0 .5-.225.5-.5v-13c0-.275-.225-.5-.5-.5h-13c-.275 0-.5.225-.5.5v13c0 .275.225.5.5.5z" fill="#fff"/><path opacity=".67" fill-rule="evenodd" clip-rule="evenodd" d="M3.5 18h13c.827 0 1.5-.673 1.5-1.5v-13c0-.827-.673-1.5-1.5-1.5h-13C2.673 2 2 2.673 2 3.5v13c0 .827.673 1.5 1.5 1.5zM3 3.5a.5.5 0 0 1 .5-.5h13a.5.5 0 0 1 .5.5v13a.5.5 0 0 1-.5.5h-13a.5.5 0 0 1-.5-.5v-13z" fill="#605E5C"/><path clip-rule="evenodd" d="M7.5 13.5a1 1 0 1 0 0-2 1 1 0 0 0 0 2zM12.5 12.5a1 1 0 1 0 0-2 1 1 0 0 0 0 2z" stroke="#E8467C" stroke-linecap="round" stroke-linejoin="round"/><path d="M13.5 6.5h.5a.5.5 0 0 0-.598-.49l.098.49zm-5 1-.098-.49A.5.5 0 0 0 8 7.5h.5zm5.5 4v-5h-1v5h1zm-.598-5.49-5 1 .196.98 5-1-.196-.98zM8 7.5v5h1v-5H8zm5.402.01-5 1 .196.98 5-1-.196-.98z" fill="#E8467C"/></svg>